<?xml version="1.0" encoding="utf-8"?>
<!-- Generator: Adobe Illustrator 26.1.0, SVG Export Plug-In . SVG Version: 6.00 Build 0)  -->
<svg version="1.1" id="none" xmlns:svgjs="http://svgjs.dev/svgjs"
	 xmlns="http://www.w3.org/2000/svg" xmlns:xlink="http://www.w3.org/1999/xlink" x="0px" y="0px" viewBox="0 0 2000 655.7"
	 style="enable-background:new 0 0 2000 655.7;" xml:space="preserve">
<style type="text/css">
	.st0{fill:url(#SVGID_1_);}
	.st1{fill:#37BCF8;}
	.st2{fill:url(#SVGID_00000058586993710415665360000011268378896355973269_);}
	.st3{fill:url(#SVGID_00000106834264297304038840000017482923732285147315_);stroke:#FFFFFF;stroke-miterlimit:10;}
	.st4{fill:url(#SVGID_00000137832375363782873730000017131664981573772470_);stroke:#FFFFFF;stroke-miterlimit:10;}
	
		.st5{fill:url(#SVGID_00000103983356261318491380000011260457594959368867_);stroke:url(#SVGID_00000022559010439857552670000004156482509809188772_);stroke-width:36;stroke-linecap:round;stroke-miterlimit:10;}
</style>
<g>
	<linearGradient id="SVGID_1_" gradientUnits="userSpaceOnUse" x1="36.7014" y1="403.6817" x2="285.1772" y2="260.2241">
		<stop  offset="0.197" style="stop-color:#DB2777"/>
		<stop  offset="0.6397" style="stop-color:#8377BC"/>
		<stop  offset="1" style="stop-color:#37BCF8"/>
	</linearGradient>
	<path class="st0" d="M182.8,131.6c-25.4,8.9-116.6,28.8-141.8,64.1c-84.2,90-9.2,260.2,96.7,298.2c4.4,1.7,9.9-1,15.6-2.9V351.3
		c-26.6,29.2-44.5-15.2-42.5-41.9c0.1-20,6.8-50.2,26.9-52.3c23.5,2.8,25.6,37.8,26.4,62.4c0,0,6.1,179.3,6.1,179.3h69.5
		c-4.7-83.3-1.5-261.9-21.3-333.4C210.3,130.7,217.4,119.5,182.8,131.6z"/>
	<path class="st1" d="M285.8,158.8c2.6-6,75.9-25.7,82.8-25.7l12.2-39.5c-44.3,2.2-135.1,1.7-134.1,31.6
		c-5.6,12.3-4.8,11.7-6.6,24.3c-1.8,12.6,1.6,42.2,14.9,59.2c10.9,14,94.9-8.9,91.5-1.4c-3.4,7.6-95.7,25.2-103.6,25.2l10.4,106.9
		c17,0,109.4-106.6,128-114.8c14.6-12,6.4-29-0.5-61.3C377.2,146.3,283.2,164.8,285.8,158.8z"/>
	<path class="st1" d="M656.4,222.4c0,0-42.3-16.7-66.3-26.2c-37.4-13.1-66-101.3-77-120.5c-1.7,18.5,5.8,88.7-16.4,89.2
		c-9.2,0-23.1-3.6-23.1-25l-3.9-60.3l-70.5,10.2c0,0-9.8,62.7,16.3,117.5c58.5,14,177.9,49,211.1,89.2c90,122.6,65.7,126.5,86,155.4
		c28.4,40.4,2.5,39.9-6.9,32.2l-13.5,53.3c66.6,10.4,130.2,9,99.7-88.5C775,411.7,656.4,282.3,656.4,222.4z"/>
	<path class="st1" d="M948.9,227.6c-16-37.3-39.4-54.2-59.9-37.5c-57.4,46.9-230.1,34-214.2,37.1c21,2.8,198.4,261.8,127.7,311.8
		H872V335.8c0-20.7,4.3-31,13-31c8.8,0,13.2,10.3,13.2,31V539h69.5C964.6,466.1,978.7,287.4,948.9,227.6z"/>
	<path class="st1" d="M1085.8,285.3c-13.2,73.1-56,33.2-53.3-15.2c0-15.4,2.5-28.1,7.6-38.2c12.3-23.9,33.2-18.4,42.5,7.9l70.4-5.1
		c-11.6-141.4-77.5-140.9-191-156.4c-26.5,0,0.9,12.4-18,48.5C925.1,163,980.8,257.2,980.8,308c0.1,81.1-24.1,229.6,76.1,236.1
		c104.6-13.3,91.3-174,97.8-263.8L1085.8,285.3z"/>
	<path class="st1" d="M1262.7,239c4,0,8.4,2.6,13.2,7.9V102.6c-34.8-6.7-66.6-21.8-83.7,21.8c-27.2,79.6-24.6,329.6-37.5,421h75.8
		l13.3-250.1C1243.8,257.8,1250.1,239,1262.7,239z"/>
	<path class="st1" d="M1348.4,110.3c-26.9,0-36.7,25.5-42.8,66.4c-14.2,88.9-79.6,254-42.7,345.2c18.6,35.6,81.3,23.5,109.2,23.5
		c4.7,0,23-50.6,28.7-52.5V353.2c-26.6,29.2-44.5-15.2-42.5-41.9c0.1-20,6.8-50.2,26.9-52.3c23.5,2.8,25.6,37.8,26.4,62.4
		c0,0-7.9,217.5-7.9,217.5h72C1467.3,408.2,1539.5,125,1348.4,110.3z"/>
	<path class="st1" d="M1583.4,307c9.3,0,17,7.7,23,23.1l70.4-5.1c-16.1-69.3-58.3-200.9-140-183.1c-67.3,27.9-46.4,148.9-51,216.3
		c0,53.4,1.6,98.5,20.4,135.3s17.2,45.5,44.4,45.5c25.8,0,70.2-8.5,73.5-27.8c11-64.5-6.1-81.2,12.2-122.7l-26.8-12.9
		c-5.9,39.1-27.4,54.9-45.2,24.2C1552.1,377.1,1550.3,311.3,1583.4,307z"/>
	
		<linearGradient id="SVGID_00000152244749195179041160000013503785659955835011_" gradientUnits="userSpaceOnUse" x1="1623.8282" y1="230.3049" x2="1984.1702" y2="230.3049">
		<stop  offset="0" style="stop-color:#37BCF8"/>
		<stop  offset="1" style="stop-color:#DB2777"/>
	</linearGradient>
	<path style="fill:url(#SVGID_00000152244749195179041160000013503785659955835011_);" d="M1854,200.2
		c-62.7,6.1-130.5,51.3-134.3,51.3c-4.6,0-8.3-3.2-11.2-9.7c-5.6-11.8-5.8-37.8,0.2-49.8c7.6-16.3,22.9-10.9,24,8.3l-19.1,0
		c-2.2,9.6-2.4,18.4-0.5,28.5l55.8-21.4l-17.3-32.5c-9.8-15.8-46.6-23.1-61.1-23.1c-14.8,0-42.2-1.7-56.6-4.3
		c-18.6-3.3-6.9,32.1,0,42.9c6.9,10.7,24,59.9,34.3,78.8c9.1,16.6,18,22.1,32,17.3c250.3-85.1,199.3,34.4,283.9,26.3
		C1984.2,312.9,1916.7,194,1854,200.2z"/>
</g>
<linearGradient id="SVGID_00000041986653988253396900000014957674222508363657_" gradientUnits="userSpaceOnUse" x1="574.2051" y1="267.1295" x2="373.0057" y2="615.6171">
	<stop  offset="0.5191" style="stop-color:#3FB5F2"/>
	<stop  offset="1" style="stop-color:#DB2777"/>
</linearGradient>
<path style="fill:url(#SVGID_00000041986653988253396900000014957674222508363657_);stroke:#FFFFFF;stroke-miterlimit:10;" d="
	M473.6,240.2c-111.1,0-201.2,90.1-201.2,201.2s90.1,201.2,201.2,201.2s201.2-90.1,201.2-201.2S584.7,240.2,473.6,240.2z
	 M473.6,546.4c-58,0-105-47-105-105s47-105,105-105s105,47,105,105S531.6,546.4,473.6,546.4z"/>
<linearGradient id="SVGID_00000053538920344242359020000005738940695319698055_" gradientUnits="userSpaceOnUse" x1="1636.152" y1="458.5188" x2="1992.35" y2="458.5188">
	<stop  offset="0" style="stop-color:#37BCF8"/>
	<stop  offset="1" style="stop-color:#DB2777"/>
</linearGradient>
<path style="fill:url(#SVGID_00000053538920344242359020000005738940695319698055_);stroke:#FFFFFF;stroke-miterlimit:10;" d="
	M1814.3,280.4c-98.4,0-178.1,79.7-178.1,178.1s79.7,178.1,178.1,178.1c98.4,0,178.1-79.7,178.1-178.1S1912.6,280.4,1814.3,280.4z
	 M1814.3,551.5c-51.3,0-93-41.6-93-93s41.6-93,93-93s93,41.6,93,93S1865.6,551.5,1814.3,551.5z"/>
<linearGradient id="SVGID_00000050650644370597503330000013261287210400642469_" gradientUnits="userSpaceOnUse" x1="866.9803" y1="92.8235" x2="911.5934" y2="92.8235">
	<stop  offset="0" style="stop-color:#DB2777"/>
	<stop  offset="0.2844" style="stop-color:#37BCF8"/>
</linearGradient>
<linearGradient id="SVGID_00000161620898725103347860000007801868077561405849_" gradientUnits="userSpaceOnUse" x1="846.4111" y1="167.0866" x2="932.1627" y2="18.5604">
	<stop  offset="0.5789" style="stop-color:#3FB5F2"/>
	<stop  offset="1" style="stop-color:#D52C7C"/>
</linearGradient>
<line style="fill:url(#SVGID_00000050650644370597503330000013261287210400642469_);stroke:url(#SVGID_00000161620898725103347860000007801868077561405849_);stroke-width:36;stroke-linecap:round;stroke-miterlimit:10;" x1="911.6" y1="27.5" x2="867" y2="158.2"/>
</svg>
