<?xml version="1.0" ?><!DOCTYPE svg  PUBLIC '-//W3C//DTD SVG 1.1//EN'  'http://www.w3.org/Graphics/SVG/1.1/DTD/svg11.dtd'><svg height="8.4666mm" style="shape-rendering:geometricPrecision; text-rendering:geometricPrecision; image-rendering:optimizeQuality; fill-rule:evenodd; clip-rule:evenodd" version="1.1" viewBox="0 0 846.66 846.66" width="8.4666mm" xml:space="preserve" xmlns="http://www.w3.org/2000/svg" xmlns:xlink="http://www.w3.org/1999/xlink"><defs><style type="text/css">
   <![CDATA[
    .fil0 {fill:black;fill-rule:nonzero}
   ]]>
  </style></defs><g id="Layer_x0020_1"><path class="fil0" d="M308.93 467.47l228.81 0c9.64,-42.56 47.61,-72.92 91.39,-72.92 43.78,0 81.76,30.36 91.4,72.92l76.64 0 0 -61.63c-29.29,-17.74 -59.23,-33.11 -89.83,-46.11l-190.09 43.53c-1.91,0.58 -3.93,0.89 -6.02,0.89l-215.79 -0.03c-4.66,0 -9.35,-1.56 -13.23,-4.76l-75.12 -62.15 -151.33 0 34.85 130.26 35.53 0c9.64,-42.56 47.62,-72.92 91.4,-72.92 43.78,0 81.75,30.36 91.39,72.92zm326.01 -133.7c-116.2,-34.29 -241.3,-36.62 -375.31,-6.97l43.26 35.79 206.2 0 125.85 -28.82zm192.08 41.88c6.93,3.37 11.71,10.47 11.71,18.7l0 93.9c0,11.48 -9.31,20.78 -20.78,20.78l-97.42 0c-9.64,42.57 -47.62,72.93 -91.4,72.93 -43.78,0 -81.75,-30.36 -91.39,-72.93l-228.81 0c-9.64,42.57 -47.61,72.93 -91.39,72.93 -43.78,0 -81.76,-30.36 -91.4,-72.93l-51.46 -0.02c-9.17,0 -17.57,-6.12 -20.05,-15.4l-45.66 -170.73c-4.35,-13.29 5.53,-27.24 19.75,-27.24l183.36 0c218.6,-57.23 426.22,-37.59 614.94,80.01zm-609.48 60.46c-28.81,0 -52.15,23.34 -52.15,52.14 0,28.81 23.34,52.15 52.15,52.15 28.8,0 52.14,-23.34 52.14,-52.15 0,-28.8 -23.34,-52.14 -52.14,-52.14zm411.59 0c-28.8,0 -52.14,23.34 -52.14,52.14 0,28.81 23.34,52.15 52.14,52.15 28.8,0 52.15,-23.34 52.15,-52.15 0,-28.8 -23.35,-52.14 -52.15,-52.14z"/></g></svg>